<svg width="17" height="14" fill="none" xmlns="http://www.w3.org/2000/svg"><path d="M14.418 3.741c.01.142.01.284.01.427 0 4.335-3.277 9.33-9.267 9.33a9.16 9.16 0 0 1-5.002-1.473c.262.03.514.041.787.041a6.495 6.495 0 0 0 4.043-1.401 3.266 3.266 0 0 1-3.045-2.274c.202.03.403.05.615.05.293 0 .585-.04.857-.111A3.274 3.274 0 0 1 .805 5.112v-.04c.433.243.937.395 1.472.415a3.283 3.283 0 0 1-1.452-2.73c0-.61.161-1.168.443-1.655a9.238 9.238 0 0 0 6.716 3.431 3.726 3.726 0 0 1-.08-.751c0-1.807 1.452-3.28 3.257-3.28a3.24 3.24 0 0 1 2.38 1.036 6.386 6.386 0 0 0 2.067-.792 3.266 3.266 0 0 1-1.432 1.807 6.496 6.496 0 0 0 1.876-.507 7.027 7.027 0 0 1-1.634 1.695Z" fill="#fff"/></svg>