<svg width="17" height="16" fill="none" xmlns="http://www.w3.org/2000/svg"><g clip-path="url(#a)"><path d="M14.417 4.74c.01.143.01.285.01.427 0 4.335-3.277 9.33-9.267 9.33a9.16 9.16 0 0 1-5.002-1.472c.262.03.514.04.787.04a6.496 6.496 0 0 0 4.043-1.4A3.266 3.266 0 0 1 1.943 9.39c.202.03.403.051.615.051.293 0 .585-.04.857-.112A3.274 3.274 0 0 1 .804 6.111v-.04c.433.243.937.395 1.472.416A3.283 3.283 0 0 1 .824 3.756c0-.61.161-1.168.443-1.655a9.238 9.238 0 0 0 6.716 3.431 3.726 3.726 0 0 1-.08-.75c0-1.808 1.452-3.28 3.257-3.28a3.24 3.24 0 0 1 2.38 1.035 6.386 6.386 0 0 0 2.067-.791 3.266 3.266 0 0 1-1.432 1.807 6.494 6.494 0 0 0 1.875-.508 7.029 7.029 0 0 1-1.633 1.696Z" fill="#000"/></g><defs><clipPath id="a"><path fill="#fff" transform="translate(.158)" d="M0 0h15.892v16H0z"/></clipPath></defs></svg>